<svg xmlns="http://www.w3.org/2000/svg" width="81" height="81" viewBox="0 0 81 81">
  <g id="Grupo_162561" data-name="Grupo 162561" transform="translate(-1111 -5118)">
    <circle id="Elipse_9" data-name="Elipse 9" cx="40.5" cy="40.5" r="40.5" transform="translate(1111 5118)" fill="#fff"/>
    <path id="iconmonstr-medical-3" d="M28.377,5.183V3h4.366V5.183h2.663a3.275,3.275,0,0,1,2.681,1.393c1.882,2.683,7.754,11.7,7.754,11.7s3.036,2.639,4.366,3.781a5.494,5.494,0,0,1,2.183,4.951v5.457a3.276,3.276,0,0,1-3.274,3.274H45.84a6.549,6.549,0,1,1-13.1,0h-13.1a6.549,6.549,0,0,1-13.1,0H2.183A2.184,2.184,0,0,1,0,33.56V7.366A2.184,2.184,0,0,1,2.183,5.183ZM13.237,33.015a2.729,2.729,0,1,1-2.729,2.729A2.73,2.73,0,0,1,13.237,33.015Zm26.194,0A2.729,2.729,0,1,1,36.7,35.743,2.73,2.73,0,0,1,39.431,33.015ZM17.463,11.731H13.1V16.1H8.731v4.366H13.1v4.366h4.366V20.463h4.366V16.1H17.463ZM35.05,9.549H28.377V18.28H40.763Z" transform="translate(1128 5136.854)" fill="#7d2447" fill-rule="evenodd"/>
  </g>
</svg>
