<?xml version="1.0" encoding="UTF-8"?>
<svg id="Capa_1" data-name="Capa 1" xmlns="http://www.w3.org/2000/svg" viewBox="0 0 24 24">
  <path d="m12.41,11.45c-1.11-1.51-2.12-3.08-3.28-4.59-.03-.07-.1-.1-.2-.1h-1.41s-.2,0-.1.1c.61.81,1.11,1.61,1.77,2.47,1.82,2.62,3.68,5.3,5.5,7.92.07.07.13.1.2.1h1.6s0-.1-.1-.2c-1.31-1.92-2.62-3.78-3.98-5.7Z" style="stroke-width: 0px;"/>
  <path d="m12,0C5.37,0,0,5.37,0,12s5.37,12,12,12,12-5.37,12-12S18.63,0,12,0Zm5.9,18.05h-3.38c-.07,0-.13-.03-.2-.1-1.01-1.51-2.02-2.93-3.08-4.49h-.1c-1.31,1.51-2.52,3.08-3.88,4.49l-.05.1h-.91l.1-.1c1.41-1.71,2.93-3.38,4.39-5.09.1-.1,0-.2,0-.2,0,.1-3.18-4.49-4.69-6.71h3.38c.07,0,.13.03.2.1,1.01,1.41,2.93,4.29,2.93,4.29h.1c1.21-1.41,2.42-2.82,3.68-4.29.07-.07.13-.1.2-.1h.91l-.1.1c-1.41,1.61-2.82,3.28-4.19,4.89-.07.07-.07.13,0,.2,1.31,1.92,2.62,3.88,3.98,5.8.2.3.5.71.71,1.01v.1Z" style="stroke-width: 0px;"/>
</svg>