<svg xmlns="http://www.w3.org/2000/svg" width="81" height="81" viewBox="0 0 81 81">
  <g id="Grupo_162559" data-name="Grupo 162559" transform="translate(-464 -5118)">
    <circle id="Elipse_8" data-name="Elipse 8" cx="40.5" cy="40.5" r="40.5" transform="translate(464 5118)" fill="#fff"/>
    <g id="_072" data-name="072" transform="translate(483.491 5131.352)">
      <path id="Trazado_6176" data-name="Trazado 6176" d="M26.556,61.1c-.017.247-.027.424-.043.6a2.235,2.235,0,0,0,1.132,2.349,37.408,37.408,0,0,0,3.447,1.628,29.731,29.731,0,0,1,8.346,4.642,7.17,7.17,0,0,1,2.412,7.165,4.43,4.43,0,0,1-2.031,2.852,14.482,14.482,0,0,1-5.461,2.082,60.969,60.969,0,0,1-12.133.979A82.927,82.927,0,0,1,10.7,82.9a23.192,23.192,0,0,1-6.862-1.784A5.877,5.877,0,0,1,.264,77.429a6.219,6.219,0,0,1,1.494-6.121,16.433,16.433,0,0,1,4.582-3.371c2.234-1.179,4.529-2.242,6.8-3.357a10.728,10.728,0,0,0,1.3-.68,2.592,2.592,0,0,0,.918-3.467,11.694,11.694,0,0,0-1.184-1.749A19.985,19.985,0,0,1,10,49.324a14.991,14.991,0,0,1,.863-8.44,10.186,10.186,0,0,1,8.577-6.221,12.282,12.282,0,0,1,6.143.657c3.76,1.483,5.765,4.393,6.5,8.256a17.577,17.577,0,0,1-1.556,10.834.961.961,0,0,1-.529.46,12.567,12.567,0,0,1-1.721.379,1.624,1.624,0,0,1-.592-.153,12.019,12.019,0,0,0-1.794-.477,15.944,15.944,0,0,0-2.178-.016,3.248,3.248,0,0,0-.028,6.5c.938.02,1.877,0,2.877,0Z" transform="translate(0 -29.101)" fill="#7d2447"/>
      <path id="Trazado_6177" data-name="Trazado 6177" d="M51.776,21.71c0,.9.011,1.808,0,2.712a2.911,2.911,0,0,1-4.138,2.7.824.824,0,0,0-.665.027,16.1,16.1,0,0,1-6.962,2.357,2.864,2.864,0,0,0-.739.35,4.83,4.83,0,0,1-1.3.568,14.312,14.312,0,0,1-2.236.02,1.662,1.662,0,0,1-1.664-1.579,1.6,1.6,0,0,1,1.45-1.764,20.405,20.405,0,0,1,2.705-.006,1.222,1.222,0,0,1,.789.34,1.126,1.126,0,0,0,1.153.317,14.148,14.148,0,0,0,5.587-1.89.562.562,0,0,0,.307-.7,10.222,10.222,0,0,1-.08-1.76c-.008-1.435.011-2.869-.006-4.3a2.94,2.94,0,0,1,1.309-2.617.747.747,0,0,0,.222-.579,14.511,14.511,0,0,0-28.643-1.875c-.082.362-.123.735-.2,1.1a1.439,1.439,0,0,0,.608,1.79,2.145,2.145,0,0,1,.83,1.872c0,1.945.028,3.891,0,5.834a2.886,2.886,0,0,1-5.762.076c-.06-1.983-.038-3.968,0-5.952a2.781,2.781,0,0,1,1.252-2.23,1,1,0,0,0,.364-.644,17.139,17.139,0,0,1,33.9-2.079,8.716,8.716,0,0,1,.162.987c.079.846.1,1.644.975,2.209a2.237,2.237,0,0,1,.787,1.953c.009.923,0,1.847,0,2.77Z" transform="translate(-12.035 0)" fill="#7d2447"/>
    </g>
  </g>
</svg>
