<svg xmlns="http://www.w3.org/2000/svg" width="81" height="81" viewBox="0 0 81 81">
  <g id="Grupo_162560" data-name="Grupo 162560" transform="translate(-789 -5118)">
    <circle id="Elipse_8" data-name="Elipse 8" cx="40.5" cy="40.5" r="40.5" transform="translate(789 5118)" fill="#fff"/>
    <path id="iconmonstr-smartphone-5_2_" data-name="iconmonstr-smartphone-5 (2)" d="M5,7.577C5,9.718,5,43.095,5,45.26c0,4.847,7.68,7.281,15.355,7.281,7.651,0,15.294-2.419,15.294-7.281V7.577c0-5.14-7.38-7.577-14.9-7.577C12.951,0,5,2.625,5,7.577Zm15.325-3.2A1.095,1.095,0,1,1,19.23,5.473,1.094,1.094,0,0,1,20.325,4.378Zm0,43.784a2.189,2.189,0,1,1,2.189-2.189A2.19,2.19,0,0,1,20.325,48.163ZM31.271,41.6H9.378V8.757H31.271Z" transform="translate(809.175 5132.229)" fill="#7d2447"/>
  </g>
</svg>
