<?xml version="1.0" encoding="UTF-8"?>
<svg id="Capa_1" data-name="Capa 1" xmlns="http://www.w3.org/2000/svg" xmlns:xlink="http://www.w3.org/1999/xlink" viewBox="0 0 492.69 137.77">
  <defs>
    <clipPath id="clippath">
      <rect width="492.69" height="137.77" style="fill: none; stroke-width: 0px;"/>
    </clipPath>
  </defs>
  <g style="clip-path: url(#clippath);">
    <path d="m271.18,76.11c-1.61,2.91-4.09,5.26-7.43,7.04-3.34,1.79-7.49,2.68-12.44,2.68h-9.16s.09,7.54,0,10.05c-.08,2.26-.42,5.69-3.31,8.4-2.91,2.74-5.86,3.3-7.55,3.3-1.09,0-3.92.02-3.92.02v-60.66h23.94c4.84,0,8.93.83,12.27,2.51,3.34,1.67,5.85,3.97,7.52,6.91,1.67,2.94,2.51,6.31,2.51,10.11,0,3.52-.81,6.73-2.42,9.63m-14.69-4.02c1.38-1.32,2.07-3.2,2.07-5.62s-.69-4.29-2.07-5.62c-1.38-1.32-3.49-1.99-6.31-1.99h-8.04v15.21h8.04c2.82,0,4.92-.66,6.31-1.99" style="fill: #fff; stroke-width: 0px;"/>
    <path d="m313.46,59.39v27.22s.15,3.85-2.46,6.27c-2.82,2.62-5.63,2.49-5.63,2.49h-2.94v-4.9c-1.12,1.59-2.63,2.87-4.55,3.84-1.91.97-4.03,1.45-6.35,1.45-2.75,0-5.18-.61-7.29-1.84-2.11-1.23-3.74-3-4.9-5.32-1.16-2.32-1.74-5.05-1.74-8.19v-21.02h10.97v19.54c0,2.41.62,4.28,1.87,5.61,1.25,1.33,2.92,2,5.03,2s3.85-.66,5.1-2c1.25-1.33,1.87-3.2,1.87-5.61v-19.54h11.03Z" style="fill: #fff; stroke-width: 0px;"/>
    <path d="m389.3,61.2c2.59-1.38,5.56-2.07,8.9-2.07,3.97,0,7.57,1.01,10.8,3.02,3.23,2.02,5.77,4.9,7.65,8.64,1.87,3.75,2.81,8.09,2.81,13.05s-.94,9.32-2.81,13.09c-1.87,3.77-4.42,6.68-7.65,8.73-3.23,2.05-6.83,3.07-10.8,3.07-3.4,0-6.37-.68-8.9-2.03-2.53-1.35-4.52-3.15-5.96-5.4v6.74h-14.77v-63.94s2.94-.03,3.92,0c1.34.04,4.51.42,7.55,3.32,3.57,3.41,3.31,8.4,3.31,8.4v10.83c1.38-2.25,3.37-4.06,5.96-5.44m12.05,13.95c-2.05-2.1-4.57-3.15-7.56-3.15s-5.43,1.07-7.47,3.2c-2.04,2.13-3.07,5.04-3.07,8.73s1.02,6.6,3.07,8.73,4.54,3.2,7.47,3.2,5.44-1.08,7.52-3.24c2.07-2.16,3.11-5.08,3.11-8.77s-1.03-6.58-3.07-8.68" style="fill: #fff; stroke-width: 0px;"/>
    <path d="m435.2,47.43c3.5,3.42,3.31,8.4,3.31,8.4v52.23h-14.77v-63.94h3.32s4.4-.34,8.14,3.31" style="fill: #fff; stroke-width: 0px;"/>
    <path d="m444.83,70.74c1.86-3.73,4.4-6.59,7.61-8.6,3.21-2.01,6.79-3.01,10.75-3.01,3.38,0,6.35.69,8.9,2.06,2.55,1.38,4.51,3.18,5.89,5.42v-6.79h14.71v36.3s.1,5.2-3.28,8.36c-4.1,3.84-8.22,3.3-8.22,3.3l-3.2.02v-6.79c-1.44,2.24-3.43,4.04-5.98,5.42-2.55,1.38-5.52,2.06-8.9,2.06-3.9,0-7.46-1.02-10.66-3.05-3.21-2.04-5.75-4.93-7.61-8.69-1.87-3.76-2.8-8.1-2.8-13.03s.93-9.26,2.8-12.99m30.1,4.39c-2.04-2.12-4.52-3.18-7.44-3.18s-5.41,1.05-7.44,3.14c-2.04,2.09-3.05,4.97-3.05,8.64s1.02,6.58,3.05,8.73c2.03,2.15,4.51,3.22,7.44,3.22s5.4-1.06,7.44-3.18c2.04-2.12,3.05-5.02,3.05-8.69s-1.02-6.57-3.05-8.69" style="fill: #fff; stroke-width: 0px;"/>
    <path d="m363.99,87.23h-32.78c.23,2.94,1.17,5.18,2.84,6.73,1.67,1.55,3.71,2.33,6.14,2.33,3.61,0,6.13-1.52,7.54-4.57h15.41c-.79,3.11-2.22,5.9-4.28,8.39-2.06,2.48-4.64,4.43-7.75,5.84-3.11,1.41-6.58,2.12-10.42,2.12-4.63,0-8.75-.99-12.37-2.96-3.61-1.98-6.44-4.8-8.47-8.47-2.03-3.67-3.05-7.96-3.05-12.87s1-9.2,3.01-12.87c2-3.67,4.81-6.49,8.43-8.47,3.61-1.98,7.76-2.97,12.45-2.97s8.64.96,12.19,2.88c3.56,1.92,6.34,4.66,8.34,8.22,2,3.56,3.01,7.71,3.01,12.45,0,1.35-.08,2.77-.25,4.24m-14.57-8.05c0-2.48-.85-4.46-2.54-5.93-1.69-1.47-3.81-2.2-6.35-2.2s-4.48.71-6.14,2.12c-1.67,1.41-2.7,3.42-3.09,6.01h18.12Z" style="fill: #fff; stroke-width: 0px;"/>
    <path d="m277.65,96.94c-.79-.72,9.26,13.87,18.99,11.41,9.73-2.46,5.25-13.22-2.68-10.06-8.34,3.32-15.14-.29-16.31-1.35" style="fill: #dbc6b3; stroke-width: 0px;"/>
    <path d="m411.54,57.66c.7.8-7.65-14.82-17.59-13.47-9.94,1.35-6.69,12.55,1.54,10.3,8.66-2.37,15.01,1.98,16.05,3.17" style="fill: #dbc6b3; stroke-width: 0px;"/>
    <path d="m234.75,127.12h7.03l-.02,7.05h-2.43l-.19-1.37c-.98.91-2.31,1.56-4.02,1.56-3.93,0-6.7-2.79-6.7-6.59s2.85-6.57,6.68-6.57c3.31,0,6.01,1.7,6.6,4.78h-3.58c-.46-1.14-1.62-1.71-2.83-1.71-1.83,0-3.41,1.27-3.41,3.52,0,2.43,1.71,3.52,3.39,3.52,1.27,0,2.64-.5,3.08-1.79h-3.6v-2.41Z" style="fill: #dbc6b3; stroke-width: 0px;"/>
    <path d="m244.65,127.78c0-3.85,2.89-6.57,6.89-6.57s6.87,2.71,6.87,6.59-2.87,6.57-6.87,6.57-6.89-2.69-6.89-6.59m10.28.02c0-2.25-1.6-3.52-3.39-3.52s-3.39,1.27-3.39,3.52,1.6,3.52,3.39,3.52,3.39-1.25,3.39-3.52" style="fill: #dbc6b3; stroke-width: 0px;"/>
    <path d="m261.59,134.17v-12.76h6.2c2.17,0,3.91,1.31,3.91,3.47,0,1.14-.46,2.08-1.56,2.73,1.52.54,2.23,1.69,2.23,3.06,0,2.14-1.67,3.5-3.95,3.5h-6.83Zm3.31-7.66h2.29c.79,0,1.23-.6,1.23-1.25,0-.69-.5-1.25-1.33-1.25h-2.19v2.5Zm0,5.14h2.62c.88,0,1.39-.62,1.39-1.31,0-.73-.5-1.37-1.39-1.37h-2.62v2.68Z" style="fill: #dbc6b3; stroke-width: 0px;"/>
    <rect x="275.51" y="121.41" width="3.35" height="12.76" style="fill: #dbc6b3; stroke-width: 0px;"/>
    <polygon points="286.2 128.99 286.2 131.36 292.01 131.36 292.01 134.17 282.85 134.17 282.85 121.4 291.9 121.4 291.9 124.22 286.2 124.22 286.2 126.35 291.22 126.35 291.22 128.99 286.2 128.99" style="fill: #dbc6b3; stroke-width: 0px;"/>
    <path d="m295.21,134.17v-12.76h6.35c2.68,0,4.64,1.83,4.64,4.37,0,1.83-1,3.27-2.56,3.95l2.7,4.45h-3.79l-2.35-4.02h-1.64v4.02h-3.35Zm3.35-6.78h2.58c.94,0,1.64-.69,1.64-1.62s-.71-1.56-1.64-1.56h-2.58v3.18Z" style="fill: #dbc6b3; stroke-width: 0px;"/>
    <polygon points="309.52 134.17 309.52 121.41 312.33 121.41 318.28 128.88 318.28 121.41 321.55 121.41 321.55 134.17 318.84 134.17 312.79 126.72 312.79 134.17 309.52 134.17" style="fill: #dbc6b3; stroke-width: 0px;"/>
    <path d="m324.73,127.78c0-3.85,2.89-6.57,6.89-6.57s6.87,2.71,6.87,6.59-2.87,6.57-6.87,6.57-6.89-2.69-6.89-6.59m10.28.02c0-2.25-1.6-3.52-3.39-3.52s-3.39,1.27-3.39,3.52,1.6,3.52,3.39,3.52,3.39-1.25,3.39-3.52" style="fill: #dbc6b3; stroke-width: 0px;"/>
    <path d="m346.75,134.17v-12.77h5.91c3.77,0,6.26,2.66,6.26,6.37s-2.48,6.39-6.26,6.39h-5.91Zm3.35-2.83h2.35c1.96,0,3.06-1.58,3.06-3.56s-1.1-3.52-3.04-3.52h-2.37v7.09Z" style="fill: #dbc6b3; stroke-width: 0px;"/>
    <polygon points="365.47 128.99 365.47 131.36 371.28 131.36 371.28 134.17 362.12 134.17 362.12 121.4 371.17 121.4 371.17 124.22 365.47 124.22 365.47 126.35 370.5 126.35 370.5 128.99 365.47 128.99" style="fill: #dbc6b3; stroke-width: 0px;"/>
    <polygon points="379.56 134.17 379.56 121.41 382.91 121.41 382.91 131.36 388.94 131.36 388.94 134.17 379.56 134.17" style="fill: #dbc6b3; stroke-width: 0px;"/>
    <path d="m390.17,134.17l4.95-12.77h3.95l4.99,12.77h-3.58l-.91-2.29h-4.95l-.87,2.29h-3.58Zm5.26-4.85h3.37l-1.7-4.66-1.67,4.66Z" style="fill: #dbc6b3; stroke-width: 0px;"/>
    <path d="m423.98,128.93c-.52,3.25-3.14,5.43-6.59,5.43-4,0-6.87-2.77-6.87-6.58s2.87-6.57,6.87-6.57c3.39,0,5.99,2.1,6.53,5.24h-3.58c-.44-1.4-1.67-2.14-2.98-2.14-1.7,0-3.26,1.25-3.26,3.47s1.56,3.52,3.26,3.52c1.35,0,2.6-.81,2.98-2.37h3.64Z" style="fill: #dbc6b3; stroke-width: 0px;"/>
    <rect x="426.95" y="121.41" width="3.35" height="12.76" style="fill: #dbc6b3; stroke-width: 0px;"/>
    <path d="m434.15,121.41h3.29v7.61c0,1.56,1.06,2.37,2.39,2.37s2.39-.81,2.39-2.37v-7.61h3.29v8.05c0,3.21-2.54,4.91-5.66,4.91s-5.7-1.69-5.7-4.91v-8.05Z" style="fill: #dbc6b3; stroke-width: 0px;"/>
    <path d="m449.36,134.17v-12.77h5.91c3.77,0,6.26,2.66,6.26,6.37s-2.48,6.39-6.26,6.39h-5.91Zm3.35-2.83h2.35c1.96,0,3.06-1.58,3.06-3.56s-1.1-3.52-3.04-3.52h-2.37v7.09Z" style="fill: #dbc6b3; stroke-width: 0px;"/>
    <path d="m463.13,134.17l4.95-12.77h3.95l4.99,12.77h-3.58l-.91-2.29h-4.95l-.87,2.29h-3.58Zm5.26-4.85h3.37l-1.69-4.66-1.67,4.66Z" style="fill: #dbc6b3; stroke-width: 0px;"/>
    <path d="m479.48,134.17v-12.77h5.91c3.77,0,6.26,2.66,6.26,6.37s-2.48,6.39-6.26,6.39h-5.91Zm3.35-2.83h2.35c1.96,0,3.06-1.58,3.06-3.56s-1.1-3.52-3.04-3.52h-2.37v7.09Z" style="fill: #dbc6b3; stroke-width: 0px;"/>
    <path d="m11.33,101.45h0l-.06-.09s.04.06.06.09" style="fill: #fff; stroke-width: 0px;"/>
    <path d="m26.49,32.03c-.16-.74.42-2.45.37-2.63,0,0,1.12,1.56,1.37,2.11.13.29,2.23,9.33,2.23,9.33.38.05,25.89,10.31,25.89,10.31l-.48-9.61-7.28-2.43c-4.71,2.43-6.54-2.37-6.54-2.37l-5.29-2.21-2.93-5.48-4.83-.55,1.78-3.61-.94-5.38-5.82-6.91-3.8,8.66,1.13,5.54,2.52,2.39-4.82,2.42.09,5.45-3.23,1.4c1.7,6.36-4.98,6.92-4.98,6.92l-4.97,4.57c2.71,4.07-4.89,10.72-5.59,11.43L0,64.72c8.78-6.77,26.55-22.16,28.52-23.35-.88-3.46-1.41-6.55-2.03-9.33" style="fill: #fff; stroke-width: 0px;"/>
    <path d="m185.73,49.61s-1.43,4.18.19,5.24c1.16.76,2.86.71,4.05,1.25.95-.7.93-2.04.02-3.51l.42.06c.16.02.32-.08.47-.25.73-.98.97-2.26,1.26-3.43.06-.25.11-.5.16-.76-.26.07-.54.07-.83-.05-1.24-.65-.9-2.83-.75-3.97.14-1.18.84-2.81,2.32-2.51.63.13,1.14.46,1.6.88,1.02-.39,1.66-1.38,1.52-2.47l-.11-.8c5,2.05,10.31.04,14.59-2.93-.73-3.97-4.02-7.79-9.21-8.3-5.56-.54-12.81,2.62-11.87,7.43,0,0-5.95,3.85-3.54,8.23,0,0-2.85,3.21-.28,5.89" style="fill: #fff; stroke-width: 0px;"/>
    <path d="m192.65,55.71c.12.4.08,3.18-.36,3.97-1.84,3.34-2.03,1.86-2.03,1.86,0,0,.54-5-3.71-3.88-.68.18-1.34.36-1.99.51-.06-.75-.11-1.36-.14-1.74-.2-2.34-6.56-22.84-14.4-26.26-12.92-5.65-14.51-15.61-20.49-22.93-6.39-7.84-24.27-8.32-31.34-6.05-12.9,4.14,4.24,12.12,4.24,12.12,0,0-3.67,5.14,7.6,10.65-3.95,1.05-1.91,8.78,9.21,11.97,0,0-5.97,4.16,6.14,6.67,1.4.29,2.82.42,4.24.43.87,0,3.03-.15,4.22-.04,1.12.1,1.82,3,2.8,5.01.55,1.12,1.7,3.43,2.88,3.84,1.18.41,3.16,1.78,3.02,4.12,0,0,5.61-1.07,5.2,4.85,0,0,6.33,3.66,3.23,12.35l-22.45,64.32,3.18-.02,68.4-86.38-1.73.72s-14.42,12.61-19.84,15.22c-2.02.98-5.66-3.12-1.46-5.68,2.05-1.25,3.72-.86,6.69-2.31,2.04-1,3.84-4.93,2.92-5.3-.93-.37,2.04.18,1.85-1.86-.19-2.04,2.03-1.4,2.03-1.4,0,0-.97-3.91.16-5.4.76-1,1.86-2.66,1.48-6.92-.02-.17-.04-.34-.06-.51-3.82,3.09-8.73,5.19-13.56,3.95-.1,1.38-1.1,2.59-2.48,2.95l-.29.09c-1.39-1.47-2.33-1.55-2.71.66-.12.6-.55,3.33.5,3.05.3-.06.94-.45,1.23-.59-.27,1.22-1.33,5.84-2.86,6.22m12.31-9.87c.44,1.43,1.41,2.24,2.84,2.17.45,0,.9-.08,1.41-.11-.78.7-1.88,1.06-2.9.66-1.03-.37-1.67-1.65-1.35-2.72m-63.86-33.14c2.05.22,3.9,1.19,5.74,2,1.2.57,2.39,1.17,3.55,1.82l-3.74-1.35c-1.84-.61-3.68-1.41-5.61-1.54-2.46-.04-2.93.91-.87,2.44,1.77,1.34,4.94,2.55,6.98,3.5,2.42,1.07,4.83,2.17,7.33,3.07-2.63-.43-5.16-1.35-7.66-2.26-1.87-.73-3.75-1.43-5.53-2.37-1.31-.74-3.13-1.75-3.44-3.37-.19-1.7,2.03-2.09,3.26-1.94m-12.11,2.08c-2.38-.92-4.77-1.81-7.03-3-1.66-.94-3.97-2.22-4.37-4.28-.24-2.17,2.58-2.66,4.14-2.46,2.6.28,4.95,1.51,7.29,2.54,1.53.73,3.04,1.48,4.51,2.31l-4.76-1.72c-2.34-.77-4.67-1.8-7.12-1.96-3.12-.05-3.72,1.16-1.1,3.1,2.25,1.7,6.27,3.24,8.86,4.45,3.08,1.36,6.13,2.76,9.3,3.9-3.34-.55-6.55-1.71-9.72-2.87m20.9,11.94c1.61.77,3.2,1.56,4.76,2.43l-5.01-1.81c-2.47-.82-4.93-1.89-7.51-2.07-3.29-.05-3.93,1.22-1.16,3.27,2.37,1.79,6.61,3.41,9.34,4.69,3.25,1.43,6.46,2.91,9.81,4.11-3.53-.58-6.91-1.81-10.25-3.03-2.51-.97-5.03-1.91-7.41-3.17-1.75-1-4.19-2.34-4.61-4.51-.25-2.28,2.72-2.8,4.37-2.6m26.62,26.91c-1.92-1.27-3.87-2.51-5.65-4.04-1.3-1.2-3.11-2.83-3.14-5.02.13-2.28,2.66-2.43,3.99-2.02,2.22.63,4.07,2.21,5.95,3.59,1.22.95,2.41,1.93,3.57,2.99l-3.87-2.41c-1.92-1.11-3.79-2.48-5.9-2.97-2.71-.46-3.42.72-1.44,3.08,1.7,2.06,4.95,4.18,7.02,5.78,2.47,1.81,4.91,3.67,7.49,5.27-2.82-1.01-5.43-2.63-8.01-4.25" style="fill: #fff; stroke-width: 0px;"/>
    <path d="m167.74,65.89c-1.16-.28-1.98-.99-2.53-1.67-.53-.67-.86-1.5-.89-2.35-.09-3.38-5.14-2.54-5.13-2.62,1.6-2.67-1.35-4.21-1.36-4.27-2.94-1.17-3.35-4.66-3.35-4.63-.4-.07-.79-.15-1.18-.24.08-.05.15-.1.23-.15.11-.56.22-1.11.33-1.67-.61-.94-1.23-1.91-1.85-2.92-.7.53-1.39,1.04-2.07,1.55-.13.69-.22,1.15-.34,1.84.08.12.15.24.23.36-.35-.12-.7-.25-1.05-.38.01-.04-1.33,3.01-4.36,2.57-.03.04-3.16-.04-2.51,3.42-.02.11-3.54-3.2-4.7-.06-.4,1.1-1.24,2.03-2.36,2.38-.57.18-1.24.23-1.98.02,0,.01-1.33-.71-1.35,1.34,0,0,0,0-.01-.01-.21,3.19-7.04,54.57-9.3,78.96l4.35-.02c2.78-19.75,9.06-51.48,9.43-51.48.65-5.44,5.52-9.96,11.1-8.85,5.58,1.11,8.63,6.64,7.19,11.64-4.56,16.74-8.86,29.52-14.53,48.83.34-.02,4.47,0,4.47,0,8.21-23.43,23.66-67.12,24.4-69.82,0,0,0,0,0,0,.59-1.69-.89-1.76-.89-1.77m-12.92,4.11l-.03,1.48-1.44-.02c-.03,1.6-1.35,2.88-2.95,2.85-1.6-.03-2.88-1.35-2.85-2.95l-1.44-.03.03-1.64c-1.6-.03-2.88-1.35-2.85-2.95.03-1.6,1.35-2.88,2.95-2.85l.02-1.24,1.76.03c.03-1.6,1.35-2.88,2.95-2.85,1.6.03,2.88,1.35,2.85,2.95l1.13.02-.02,1.41c1.6.03,2.88,1.35,2.85,2.95-.03,1.6-1.35,2.88-2.95,2.85" style="fill: #dbc6b3; stroke-width: 0px;"/>
    <path d="m107.74,41.62l-.02-9.33v-2.39s0-.01,0-.01v-1.91s-.04-14.32-.04-14.32v-.1c-7.12-1.87-9.13-.8-15.71,2.98-6.11,3.52-15.5-3.52-15.5-3.52l1.67,14.57c13.61,5.87,18.77.18,21.88-.75,2.67-.8,5.28.08,6.61.67v2.37s0,.02,0,.02v2.4s.03,9.33.03,9.33" style="fill: #fff; stroke-width: 0px;"/>
    <path d="m98.9,101.01c2.33-.82,4.73-1.44,7.13-1.65-.18.84-.27,1.67-.1,2.24.26.87.83,1.11,1.11,1.11.58,0,.98-.45,1.2-1.16.16-.51.02-1.37-.2-2.26,1.58.03,3.16.27,4.72.78.65.21,1.3.45,1.91.85-.54-.55-1.19-.9-1.82-1.23-4.54-2.13-9.61-1.28-13.94,1.3" style="fill: #fff; stroke-width: 0px;"/>
    <path d="m107.19,70.24c-.03-2.13.71-9.13.71-9.37.89-.91,3.08-3.94,3.08-3.94-.22-.2-2.68,1.92-3.62,2.89-.13.14-.27.27-.4.41-.03.03-.05.07-.07.11-.07.09-.12.2-.12.35.03,2.13.42,10.28.42,9.56" style="fill: #fff; stroke-width: 0px;"/>
    <path d="m106.63,41.4h-2.98v2.1c-2.34-1.03-3.93-3.04-3.93-5.36s1.59-4.33,3.93-5.36v-2.77c-8.18,1.64-14.35,8.83-14.35,17.45h-3.68l1.45,12.2-2.55-.02,3.12,5.14,8.47,72.65h22.14l8.51-72.65,3.12-5.12h-2.52s1.43-12.21,1.43-12.21h-3.68c0-8.62-6.16-15.81-14.35-17.45v2.75c2.35,1.02,3.93,3.03,3.93,5.36s-1.44,4.47-3.93,5.47v-2.2h-3.06m-.53,9.53c5.66-.01,10.26,4.56,10.27,10.22.01,5.66-4.56,10.26-10.22,10.27-5.66.01-10.26-4.56-10.27-10.22-.01-5.66,4.56-10.26,10.22-10.27m-15.26,34.31s4.61-.66,7.24-3.41c3.73-3.89,8.74-2.77,7.07,1.46-.28.7-2.43,2.38-4.28-.4,0,0,2.99,1.23,2.7-1.44-.14-1.26-2.53-.82-4.93,1.69-1.51,1.57-4.43,2-7.8,2.1m24.46,18c-1.53,2.63-9.24,2.51-9.24,2.51,0,0-7.71.16-9.26-2.46-1.03-1.74-.48-5.77,2.15-6.51,1.14-.32,1.65-1.43,2.47-4.66.82-3.23,1.61-5.82,2.51-6.03,1.33-.31.47-1.3,2.08-1.31,1.61,0,.89.87,2.09,1.3.81.29,1.7,2.8,2.53,6.02s1.35,4.33,2.49,4.65c2.64.72,3.2,4.75,2.18,6.49m-1.42-20.14c-2.42-2.49-4.81-2.92-4.94-1.66-.28,2.67,2.71,1.43,2.71,1.43-1.84,2.79-4,1.12-4.28.42-1.69-4.22,3.32-5.36,7.06-1.49,2.65,2.74,7.26,3.37,7.26,3.37-3.37-.09-6.3-.51-7.81-2.07" style="fill: #fff; stroke-width: 0px;"/>
    <path d="m25.43,101.07l29.15,36.7,9.12-.02-19.84-53.37-18.44,16.7Zm13.52,5.46l-5.44-2.82,1.55-6.04,5.44,2.82-1.55,6.05Zm14.25,20.99l-5.49-2.86,1.54-6.1,5.48,2.85-1.53,6.11Zm-6.85-21.12l5.46,2.83-1.53,6.07-5.47-2.84,1.54-6.07Z" style="fill: #fff; stroke-width: 0px;"/>
    <polygon points="21.81 89.02 18.35 92.16 24.54 99.95 28.01 96.81 21.81 89.02" style="fill: #fff; stroke-width: 0px;"/>
    <path d="m16.05,73.2c-.85-.47-1.56-.65-2.76-.48l14.17-12.81s-1.06,1.95-.79,3.4c.1.55,2.66,7.56,5.27,14.61l7.13-6.46-8.57-23.06-1.69-4.22c-3.41,1.84-5.17,9.37-5.17,9.37-12.1-.52-14.42,9.99-14.42,9.99-6.55-1.47-8.81,5.87-8.83,5.86l2.8,3.68,14.27,17.96,7.59-6.87c-4.04-5.17-8.36-10.61-9-10.97m15.03-10.52l4.55,2.34-1.33,5.04-4.55-2.35,1.33-5.03Zm-14.79,20.04l-4.55-2.35,1.33-5.03,4.55,2.34-1.33,5.03Z" style="fill: #fff; stroke-width: 0px;"/>
    <path d="m22.66,88.25l6.2,7.79,3.15-2.86c-.88-1.15-3.34-4.37-6.08-7.9l-3.27,2.96Z" style="fill: #fff; stroke-width: 0px;"/>
    <path d="m32.48,79.36c1.41,3.78,2.78,7.44,3.76,10l2.93-2.66-3.73-10.03-2.97,2.69Z" style="fill: #fff; stroke-width: 0px;"/>
    <polygon points="36.36 75.84 40.09 85.87 43.33 82.93 39.61 72.9 36.36 75.84" style="fill: #fff; stroke-width: 0px;"/>
    <polygon points="51.93 75.31 48.7 74.46 49.59 83.13 52.81 83.94 51.93 75.31" style="fill: #fff; stroke-width: 0px;"/>
    <path d="m57.39,76.74l-3.98-1.04.88,8.62.16.04c.7-2.23,1.57-4.3,2.34-6.14.21-.49.41-.98.61-1.47" style="fill: #fff; stroke-width: 0px;"/>
    <polygon points="48.11 82.76 47.23 74.07 41.43 72.55 44.71 81.91 48.11 82.76" style="fill: #fff; stroke-width: 0px;"/>
    <path d="m72.73,119.38c-.36-.35-1.5-1.05-2.43-1.61-4.2-2.54-11.24-6.8-15.69-17.41-2.19-5.22-1.78-10.22-.57-14.64l-8.76-2.2,19,54.1,13.76-.06c-1.56-2.82-2.57-7.17-3.71-12.12-.51-2.21-1.2-5.2-1.6-6.07" style="fill: #fff; stroke-width: 0px;"/>
    <path d="m80.51,58.79c1.75-.57,2.89-1.93,1.71-4.28-1.25-2.52-4.27-.44-4.27-.44-2.13-4.4-4.31-5.61-9.41-5.44v-.02c0-1.42-1.15-2.56-2.57-2.56-1.42,0-2.56,1.15-2.56,2.57,0,.43.11.83.29,1.19-3.44,1.67-5.72,4.92-5.56,8.56.03.75.18,1.47.4,2.16l-1.37.33c-1.57.37-2.54,1.96-2.17,3.53l.03.13c.37,1.57,1.96,2.54,3.53,2.17,0,0,8.35-3.28,11.76-4.38.62-.19,10.19-3.51,10.19-3.51" style="fill: #dbc6b3; stroke-width: 0px;"/>
    <path d="m83.53,64.85c-1.37-2.34-2.89-4.78-2.89-4.78,0,0-15.15,5.37-19.13,6.84.41,1.82.58,3.71.53,6-.12,5.32-8.72,15.49-4.26,26.13,5.79,13.8,16.23,15.59,17.91,18.59,1.69,3.01,3.78,19.88,7.07,19.87,2.03,0,6.29-.01,9.23-.02l-8.46-72.64Zm-13.55,13.68c2.77,3.23-.53,6.54-3.74,7.23-3.43.73-3.25,4.91-4.21,5.86-.19-1.38-.47-4.28-.44-5.66.18-7.6,6.01-10.2,8.39-7.43m-4.92,26.51c-5.88-2.24-6.09-7.84-3.19-9.07,3.39-1.43,4.94,2.24,4.48,5.12-.49,3.07,2.82,4.07,3.27,5.14-1.14-.22-3.49-.78-4.56-1.19m7.71-5.7c-2.82.83-5.62-3.48-2.4-8.69.58-.95,2.04-2.78,2.78-3.63.23,1.06-1.72,3.8.27,5.8,1.86,1.87,2.64,5.55-.65,6.52m5.63-18.39c2.56-1.77.99-4.85,1.45-5.91.63.97,1.85,3.06,2.29,4.11,2.45,5.79-1.44,9.82-4.34,8.58-3.38-1.45-1.8-5.12.6-6.78m2.83,25.21c-1.08.36-3.46.82-4.6.99.49-1.05,3.85-1.9,3.49-4.99-.34-2.89,1.37-6.5,4.7-4.92,2.85,1.35,2.39,6.94-3.58,8.92" style="fill: #dbc6b3; stroke-width: 0px;"/>
    <path d="m58.54,70.16c-.22.02-.44.04-.66.04-2.96,0-5.51-2.01-6.19-4.88l-.03-.13c-.39-1.65-.12-3.36.77-4.81.57-.93,1.35-1.68,2.27-2.2-.02-1.64.3-3.22.91-4.69-8.27-3.37-13.05-1.65-13.05-1.65-.44-4.4-9.76-7.94-11.41-8.51.72,1.98,1.44,3.97,2.17,5.97l-.06-.02,7.6,21.67,17.06,4.47c.39-1.05.67-1.98.69-2.57.02-.98,0-1.85-.07-2.67m-11.98-3.61l-5.2-3.15,1.93-5.8,5.19,3.14-1.92,5.81Z" style="fill: #fff; stroke-width: 0px;"/>
  </g>
</svg>