<svg xmlns="http://www.w3.org/2000/svg" width="1280" height="30.911" viewBox="0 0 1280 30.911">
  <g id="Grupo_162566" data-name="Grupo 162566" transform="translate(-109 -6459.02)">
    <g id="Grupo_162565" data-name="Grupo 162565">
      <line id="Línea_2" data-name="Línea 2" x2="1280" transform="translate(109 6474)" fill="none" stroke="#c2ba98" stroke-width="2"/>
      <path id="simbolo-full" d="M24.591,9.172V6.311H21.729A6.274,6.274,0,0,0,15.44-.01,6.19,6.19,0,0,0,9.151,6.279H6.289V9.141a6.289,6.289,0,0,0,0,12.578v2.862H9.151a6.289,6.289,0,1,0,12.578.031h2.862v-2.83a6.267,6.267,0,0,0,6.289-6.289A6.17,6.17,0,0,0,24.591,9.2Z" transform="translate(733.56 6459.03)" fill="#c2ba98"/>
    </g>
  </g>
</svg>
