<?xml version="1.0" encoding="UTF-8"?>
<svg id="Capa_1" data-name="Capa 1" xmlns="http://www.w3.org/2000/svg" viewBox="0 0 624.98 144.97">
  <g>
    <g>
      <path d="M88.7,66.95V30.32h9.61v28.57h17.3v8.07h-26.91Z" />
      <path d="M131.57,66.95l14.2-36.63h11.33l14.31,36.63h-10.28l-2.6-6.58h-14.2l-2.49,6.58h-10.28ZM146.66,53.03h9.67l-4.86-13.37-4.81,13.37Z" />
      <path d="M253.46,51.92c-1.49,9.34-9.01,15.58-18.9,15.58-11.49,0-19.73-7.96-19.73-18.9s8.23-18.84,19.73-18.84c9.72,0,17.18,6.02,18.73,15.03h-10.28c-1.27-4.03-4.81-6.13-8.56-6.13-4.86,0-9.34,3.59-9.34,9.95s4.48,10.11,9.34,10.11c3.87,0,7.46-2.32,8.56-6.8h10.44Z" />
      <path d="M270.25,66.95l14.2-36.63h11.33l14.31,36.63h-10.28l-2.6-6.58h-14.2l-2.49,6.58h-10.28ZM285.33,53.03h9.67l-4.86-13.37-4.81,13.37Z" />
      <path d="M329.59,66.95V30.32h17.85c7.68,0,13.32,5.36,13.32,12.87s-5.64,12.93-13.32,12.93h-8.23v10.83h-9.61ZM339.2,47.94h7.02c2.71,0,4.7-1.99,4.7-4.7s-1.99-4.75-4.7-4.75h-7.02v9.45Z" />
      <path d="M381.47,30.32h9.61v36.63h-9.61V30.32Z" />
      <path d="M411.41,38.39v-8.07h31.44v8.07h-11.05v28.57h-9.61v-28.57h-10.77Z" />
      <path d="M455,66.95l14.2-36.63h11.33l14.31,36.63h-10.28l-2.6-6.58h-14.2l-2.49,6.58h-10.28ZM470.09,53.03h9.67l-4.86-13.37-4.81,13.37Z" />
      <path d="M514.34,66.95V30.32h9.61v28.57h17.29v8.07h-26.91Z" />
    </g>
    <g>
      <path d="M55.34,81.65h16.62v63.31h-16.62v-63.31Z" />
      <path d="M85.52,144.97v-63.31h13.66l20.91,25.4,20.91-25.4h13.66v63.31h-16.23v-37.72l-17.28,20.53h-2.01l-17.38-20.53v37.72h-16.23Z" />
      <path d="M168.32,144.97v-63.31h30.85c13.27,0,23.01,9.26,23.01,22.25s-9.74,22.35-23.01,22.35h-14.23v18.72h-16.62ZM184.94,112.12h12.13c4.68,0,8.12-3.44,8.12-8.12s-3.44-8.21-8.12-8.21h-12.13v16.33Z" />
      <path d="M219.22,144.97l24.54-63.31h19.58l24.73,63.31h-17.76l-4.49-11.36h-24.54l-4.3,11.36h-17.76ZM245.3,120.9h16.71l-8.4-23.11-8.31,23.11Z" />
      <path d="M294.1,144.97v-63.31h31.51c13.27,0,23.02,9.07,23.02,21.68,0,9.07-4.97,16.23-12.7,19.58l13.37,22.06h-18.81l-11.65-19.96h-8.12v19.96h-16.62ZM310.71,111.35h12.8c4.68,0,8.12-3.44,8.12-8.02s-3.53-7.74-8.12-7.74h-12.8v15.76Z" />
      <path d="M352.45,144.97l24.54-63.31h19.58l24.73,63.31h-17.76l-4.49-11.36h-24.54l-4.3,11.36h-17.76ZM378.52,120.9h16.71l-8.4-23.11-8.31,23.11Z" />
      <path d="M427.32,144.97v-63.31h30.75c10.79,0,19.39,6.49,19.39,17.19,0,5.63-2.29,10.31-7.74,13.56,7.54,2.67,11.08,8.4,11.08,15.18,0,10.6-8.31,17.38-19.58,17.38h-33.9ZM443.74,106.96h11.36c3.91,0,6.11-2.96,6.11-6.21,0-3.44-2.48-6.21-6.59-6.21h-10.89v12.41ZM443.74,132.46h12.99c4.39,0,6.88-3.06,6.88-6.49,0-3.63-2.48-6.78-6.88-6.78h-12.99v13.27Z" />
      <path d="M490.16,144.97v-63.31h16.62v49.37h29.89v13.94h-46.51Z" />
      <path d="M560.64,119.28v11.75h28.84v13.94h-45.46v-63.31h44.88v13.94h-28.27v10.6h24.92v13.08h-24.92Z" />
    </g>
  </g>
  <g>
    <g>
      <path d="M7.13,24.03s35.33,2.11,43.48,13.89h-27.13c-5.13,0-10.16-2.04-13.47-5.96-1.79-2.11-3.09-4.76-2.88-7.93Z" />
      <path d="M41.71,42.28h-17.22s1.72,4.03,5.9,6.57c3.17,1.92,7.28,1.15,9.74-1.62l2.52-2.85c.72-.82.14-2.1-.95-2.1Z" />
    </g>
    <path d="M62.58,56.67c.5,3.32-1.74,6.93-5.11,6.93-2.37,0-3.94-.58-4.97-1.36-1.75-1.32-1.29-4,.72-4.87,1.41-.61,2.84-1.94,2.84-4.82s-2.48-4.92-5.27-4.78h0c-6.85,0-12.35,5.77-11.9,12.72.41,6.34,5.96,11.13,12.31,11.13h19.82s0-32.25,0-32.25c0-4.78-2.08-9.35-5.75-12.4C46.85,11.65,0,0,0,0c0,4.57.62,7.87,1.44,10.23,1.13,3.26,4.01,5.58,7.41,6.17,9.94,1.72,38.48,7.76,50.19,22.07,2.35,2.87,3.61,6.49,3.61,10.2v8.75" />
  </g>
  <g>
    <g>
      <path d="M617.85,24.03s-35.33,2.11-43.48,13.89h27.13c5.13,0,10.16-2.04,13.47-5.96,1.79-2.11,3.09-4.76,2.88-7.93Z" />
      <path d="M583.27,42.28h17.22s-1.72,4.03-5.9,6.57c-3.17,1.92-7.28,1.15-9.74-1.62l-2.52-2.85c-.72-.82-.14-2.1.95-2.1Z" />
    </g>
    <path d="M562.4,56.67c-.5,3.32,1.74,6.93,5.11,6.93,2.37,0,3.94-.58,4.97-1.36,1.75-1.32,1.29-4-.72-4.87-1.41-.61-2.84-1.94-2.84-4.82,0-2.79,2.48-4.92,5.27-4.78h0c6.85,0,12.35,5.77,11.9,12.72-.41,6.34-5.96,11.13-12.31,11.13h-19.82s0-32.25,0-32.25c0-4.78,2.08-9.35,5.75-12.4C578.14,11.65,624.98,0,624.98,0c0,4.57-.62,7.87-1.44,10.23-1.13,3.26-4.01,5.58-7.41,6.17-9.94,1.72-38.48,7.76-50.19,22.07-2.35,2.87-3.61,6.49-3.61,10.2v8.75" />
  </g>
</svg>
